# xmcd
#
# Track frame offsets: 
#        150
#        14425
#        26850
#        40375
#        62350
#        82500
#        115950
#        130500
#        148612
#        159525
#        174025
#        187387
#        198987
#        229500
#
# Disc length: 3257 seconds
#
# Revision: 1
# Processed by: cddbd v1.5.2PL0 Copyright (c) Steve Scherf et al.
# Submitted via: ExactAudioCopy v0.99pb5
#
DISCID=ae0cb70e
DTITLE=Eric Burdon - The Animals - War
DYEAR=1994
DGENRE=Blues
TTITLE0=It's my life
TTITLE1=I'm crying
TTITLE2=Boom, Boom
TTITLE3=Spill the wine
TTITLE4=House of the Rising sun
TTITLE5=Sky Pilot
TTITLE6=Don't bring me down
TTITLE7=See, see rider
TTITLE8=Don't let me be misunderstood
TTITLE9=We've gotta get out of this place
TTITLE10=When I was young
TTITLE11=Bring it on home to me
TTITLE12=They can't take away our music
TTITLE13=San Franciscan nights
EXTD=
EXTT0=
EXTT1=
EXTT2=
EXTT3=
EXTT4=
EXTT5=
EXTT6=
EXTT7=
EXTT8=
EXTT9=
EXTT10=
EXTT11=
EXTT12=
EXTT13=
PLAYORDER=
